<svg id="Layer_1" data-name="Layer 1" xmlns="http://www.w3.org/2000/svg" viewBox="0 0 34.72 49.98"><defs><style>.cls-1{fill:#1d1d1b;}</style></defs><title>how</title><path class="cls-1" d="M322.91,375.6a12.85,12.85,0,0,1,2.3-3.61c.91-1,2.12-2.15,3.61-3.5a29.17,29.17,0,0,0,4.13-4.24,7,7,0,0,0,1.33-4.3,6.59,6.59,0,0,0-2.66-5.49,11.68,11.68,0,0,0-7.35-2.07q-8.19,0-12.53,5.53l-5.11-3.64a19.16,19.16,0,0,1,7.53-5.81,26,26,0,0,1,10.6-2q7.64,0,12.11,3.33a10.73,10.73,0,0,1,4.48,9.13,12.86,12.86,0,0,1-.94,5.08,13.18,13.18,0,0,1-2.28,3.67q-1.33,1.47-3.57,3.5a28.49,28.49,0,0,0-4.23,4.55,8.26,8.26,0,0,0-1.37,4.83h-7A12,12,0,0,1,322.91,375.6Zm-.63,19.52a4.55,4.55,0,0,1,0-6.37,4.4,4.4,0,0,1,3.25-1.29,4.3,4.3,0,0,1,3.22,1.29,4.41,4.41,0,0,1,1.26,3.19,4.44,4.44,0,0,1-4.48,4.48A4.37,4.37,0,0,1,322.28,395.12Z" transform="translate(-306.63 -346.44)"/></svg>