<?xml version="1.0" encoding="UTF-8"?>
<!-- Created with Inkscape (http://www.inkscape.org/) -->
<svg width="500" height="500" version="1.1" viewBox="0 0 132.29 132.29" xmlns="http://www.w3.org/2000/svg">
 <g transform="translate(41.704 -59.888)" fill="none">
  <circle cx="24.442" cy="126.03" r="63.5" stroke="#000" stroke-width="5.2917"/>
  <g transform="matrix(1.1948 0 0 1.1968 -39.612 -30.361)" stroke-width="4.4252">
   <path d="m66.423 106.36c-6.1333 0-11.106 4.8394-11.106 10.81a11.059 10.764 0 0 0 1.2511 4.9891c-13.211 0-20.045-2.4946-31.151-12.473 0 16.422 4.2714 27.44 14.523 33.676-3.4171 4.6565-12.529 5.9591-17.94 6.0285 0 0 5.98 5.6128 19.649 5.6128 23.92 0 35.88-19.45 35.88-37.834l7.6885-8.3152h-11.698a11.06 10.765 0 0 0-7.0965-2.4946z" stroke="#000" stroke-linejoin="round" stroke-width="4.4252"/>
  </g>
 </g>
</svg>
