<?xml version="1.0" encoding="UTF-8"?>
<!-- Created with Inkscape (http://www.inkscape.org/) -->
<svg width="500" height="500" version="1.1" viewBox="0 0 132.29 132.29" xmlns="http://www.w3.org/2000/svg">
 <g transform="translate(41.704 -59.888)">
  <circle cx="24.442" cy="126.03" r="63.5" fill="none" stroke="#000" stroke-width="5.2917"/>
  <g transform="matrix(2.5332 0 0 2.5615 -16.089 83.769)" stroke-width="2.0774">
   <rect class="st0" x="10" y="26" width="4" height="3"/>
   <rect class="st0" transform="rotate(-90,8.5,5.5)" x="7" y="4" width="3" height="3"/>
   <rect class="st0" transform="rotate(-90,23.5,5.5)" x="22" y="4" width="3" height="3"/>
   <rect class="st0" x="18" y="26" width="4" height="3"/>
   <polygon class="st0" points="4 17 1 17 1 20 1 26 4 26 4 20 7 20 7 26 10 26 10 23 11 23 21 23 22 23 22 26 25 26 25 20 28 20 28 26 31 26 31 20 31 17 28 17 28 14 25 14 25 11 22 11 22 7 19 7 19 11 13 11 13 7 10 7 10 11 7 11 7 14 4 14"/>
   <rect class="st0" x="10" y="16" width="3" height="3"/>
   <rect class="st0" x="19" y="16" width="3" height="3"/>
  </g>
 </g>
 <style type="text/css">.st0{fill:none;stroke:#000000;stroke-width:2;stroke-linecap:round;stroke-linejoin:round;stroke-miterlimit:10;}</style>
 <style type="text/css">.st0{fill:none;stroke:#000000;stroke-width:2;stroke-linecap:round;stroke-linejoin:round;stroke-miterlimit:10;}</style>
</svg>
