<?xml version="1.0" encoding="UTF-8"?>
<!-- Created with Inkscape (http://www.inkscape.org/) -->
<svg width="500" height="500" version="1.1" viewBox="0 0 132.29 132.29" xmlns="http://www.w3.org/2000/svg">
 <g transform="translate(41.704 -59.888)">
  <g transform="matrix(1.0279 0 0 1.0279 6.2656 -4.2593)" stroke-width=".97286">
   <path d="m14.376 96.991a9.9219 9.9219 0 0 1-9.9219 9.9219 9.9219 9.9219 0 0 1-9.9219-9.9219 9.9219 9.9219 0 0 1 9.9219-9.9219 9.9219 9.9219 0 0 1 9.9219 9.9219z" fill="#212121" stroke-width=".40192"/>
   <path d="m9.4146 96.991a4.9609 4.9609 0 0 1-4.9609 4.9609 4.9609 4.9609 0 0 1-4.9609-4.9609 4.9609 4.9609 0 0 1 4.9609-4.9609 4.9609 4.9609 0 0 1 4.9609 4.9609z" fill="#f5f5f5" stroke-width=".20096"/>
   <g fill="#212121">
    <g stroke-width=".40192">
     <path d="m14.376 126.76a9.9219 9.9219 0 0 1-9.9219 9.9219 9.9219 9.9219 0 0 1-9.9219-9.9219 9.9219 9.9219 0 0 1 9.9219-9.9219 9.9219 9.9219 0 0 1 9.9219 9.9219z"/>
     <path d="m14.376 156.52a9.9219 9.9219 0 0 1-9.9219 9.9219 9.9219 9.9219 0 0 1-9.9219-9.9219 9.9219 9.9219 0 0 1 9.9219-9.9219 9.9219 9.9219 0 0 1 9.9219 9.9219z"/>
     <path d="m40.834 156.52a9.9219 9.9219 0 0 1-9.9219 9.9219 9.9219 9.9219 0 0 1-9.9219-9.9219 9.9219 9.9219 0 0 1 9.9219-9.9219 9.9219 9.9219 0 0 1 9.9219 9.9219z"/>
    </g>
    <path d="m30.912 87.069c5.4967 0 9.9219 4.4252 9.9219 9.9219v29.766c0 5.4967-4.4252 9.9219-9.9219 9.9219-5.4967 0-9.9219-4.4252-9.9219-9.9219v-29.766c0-5.4967 4.4252-9.9219 9.9219-9.9219z" stroke-width="6.6609"/>
   </g>
   <g fill="#f5f5f5" stroke-width=".20096">
    <path d="m9.4146 126.76a4.9609 4.9609 0 0 1-4.9609 4.9609 4.9609 4.9609 0 0 1-4.9609-4.9609 4.9609 4.9609 0 0 1 4.9609-4.9609 4.9609 4.9609 0 0 1 4.9609 4.9609z"/>
    <path d="m9.4146 156.52a4.9609 4.9609 0 0 1-4.9609 4.9609 4.9609 4.9609 0 0 1-4.9609-4.9609 4.9609 4.9609 0 0 1 4.9609-4.9609 4.9609 4.9609 0 0 1 4.9609 4.9609z"/>
    <path d="m35.873 156.52a4.9609 4.9609 0 0 1-4.9609 4.9609 4.9609 4.9609 0 0 1-4.9609-4.9609 4.9609 4.9609 0 0 1 4.9609-4.9609 4.9609 4.9609 0 0 1 4.9609 4.9609z"/>
   </g>
  </g>
  <circle cx="24.442" cy="126.03" r="63.5" fill="none" stroke="#000" stroke-width="5.2917"/>
 </g>
</svg>
